<svg viewBox="0 0 256 256" xmlns="http://www.w3.org/2000/svg"><path d="m128 24a104 104 0 1 0 104 104 104.11791 104.11791 0 0 0 -104-104zm-4.11816 92.002a35.99912 35.99912 0 1 1 -25.52735 61.4648 7.99985 7.99985 0 1 1 11.291-11.33594 20.20173 20.20173 0 0 0 28.47461-.001 19.91646 19.91646 0 0 0 -.001-28.25976 20.20412 20.20412 0 0 0 -28.47461.001 7.99971 7.99971 0 0 1 -13.541-6.95214l7.835-48.20215a8.00076 8.00076 0 0 1 7.89651-6.71681h40.165a8 8 0 0 1 0 16h-33.36035l-4.09765 25.21094a36.413 36.413 0 0 1 9.33984-1.20894z"/></svg>